<svg width="102" height="25" viewBox="0 0 102 25" fill="none" xmlns="http://www.w3.org/2000/svg">
<g clip-path="url(#clip0_857_28)">
<path fill-rule="evenodd" clip-rule="evenodd" d="M95.9865 20.7452C96.509 21.2923 97.3837 21.5703 98.585 21.5703V21.5721H100.87V19.4104H98.7046C98.2606 19.4104 97.9524 19.3195 97.7866 19.1413C97.6178 18.9577 97.5319 18.6298 97.5319 18.1647V11.0897H100.868V8.92792H97.5319V5.99634H95.2028V18.1896C95.2028 19.3391 95.4663 20.1998 95.9865 20.7452ZM46.3619 20.5686C47.3599 21.3278 48.6983 21.7127 50.3361 21.7127C51.2538 21.7127 52.104 21.5541 52.856 21.2369C53.6205 20.9214 54.2372 20.4652 54.688 19.8807C55.1442 19.289 55.3759 18.5958 55.3759 17.8205C55.3759 16.9294 55.1478 16.2113 54.6951 15.682C54.2514 15.1616 53.6561 14.7785 52.9291 14.545C52.2234 14.3187 51.3162 14.1369 50.2345 14.0086C49.4735 13.9141 48.8979 13.825 48.5272 13.7466C48.1833 13.6735 47.8999 13.5345 47.6843 13.3332C47.4793 13.1424 47.3795 12.868 47.3795 12.4991C47.3795 11.9966 47.6058 11.5992 48.0728 11.2855C48.5539 10.9612 49.2026 10.7972 49.9975 10.7972C50.7727 10.7972 51.4267 10.995 51.9382 11.3871C52.4497 11.7792 52.7348 12.2603 52.8097 12.8591L52.8293 13.3278H55.1532L55.1389 12.8235C55.0391 11.5243 54.508 10.5085 53.5617 9.80455C52.6261 9.11131 51.4035 8.75842 49.9262 8.75842C49.0208 8.75842 48.194 8.9206 47.4686 9.24318C46.7362 9.56753 46.1481 10.0291 45.7221 10.6137C45.2909 11.2035 45.0734 11.8878 45.0734 12.6453C45.0734 13.49 45.2998 14.1654 45.7453 14.6555C46.1819 15.1349 46.7594 15.4877 47.4615 15.7051C48.1441 15.9172 49.0298 16.0901 50.0937 16.2184C50.8386 16.3129 51.4214 16.4091 51.8224 16.5035C52.1984 16.5926 52.5067 16.7548 52.7383 16.9865C52.9594 17.2092 53.0716 17.5389 53.0716 17.9702C53.0716 18.4728 52.8346 18.8684 52.3463 19.1821C51.8402 19.5082 51.163 19.6721 50.3343 19.6721C49.3987 19.6721 48.6288 19.4494 48.0443 19.0092C47.4651 18.5726 47.1693 18.0255 47.139 17.3358L47.1318 17.1665H44.808L44.8097 17.3465C44.8275 18.7133 45.3497 19.7987 46.3619 20.5686ZM43.3063 17.1674H40.9843C40.8167 17.9408 40.4425 18.5003 39.8686 18.937C39.293 19.3772 38.5677 19.6 37.7123 19.6C36.5984 19.6 35.6825 19.1937 34.991 18.3953C34.2924 17.5879 33.9378 16.5454 33.9378 15.2462C33.9378 13.947 34.2906 12.9027 34.991 12.0972C35.6825 11.2988 36.5984 10.8925 37.7123 10.8925C38.5677 10.8925 39.293 11.1171 39.8686 11.5555C40.4425 11.9938 40.8167 12.5535 40.9843 13.3269H43.3063C43.0426 11.9261 42.4135 10.7909 41.4386 9.98899C40.4638 9.18701 39.2092 8.7807 37.7123 8.7807C36.4951 8.7807 35.4115 9.0569 34.4884 9.60051C33.5635 10.144 32.8364 10.9192 32.3249 11.8994C31.817 12.876 31.5586 13.9863 31.5586 15.2462C31.5586 16.5062 31.817 17.6165 32.3249 18.593C32.8364 19.575 33.5635 20.3485 34.4884 20.8937C35.4115 21.4373 36.4969 21.7136 37.7123 21.7136C39.2092 21.7136 40.4638 21.3073 41.4386 20.5053C42.4135 19.7033 43.0426 18.5681 43.3063 17.1674ZM69.9591 17.1681H72.2812C72.0175 18.5689 71.3884 19.7041 70.4136 20.506C69.4388 21.308 68.1842 21.7143 66.6872 21.7143C65.4718 21.7143 64.3865 21.4381 63.4633 20.8946C62.5384 20.3492 61.8113 19.5758 61.2998 18.5939C60.7919 17.6172 60.5335 16.507 60.5335 15.247C60.5335 13.9871 60.7919 12.8768 61.2998 11.9002C61.8113 10.92 62.5384 10.1448 63.4633 9.60127C64.3865 9.05773 65.4699 8.78153 66.6872 8.78153C68.1842 8.78153 69.4388 9.18784 70.4136 9.98975C71.3884 10.7917 72.0175 11.9269 72.2812 13.3277H69.9591C69.7916 12.5542 69.4173 11.9947 68.8435 11.5562C68.2679 11.1178 67.5426 10.8933 66.6872 10.8933C65.5733 10.8933 64.6573 11.2996 63.9658 12.098C63.2655 12.9035 62.9126 13.9479 62.9126 15.247C62.9126 16.5462 63.2673 17.5888 63.9658 18.396C64.6573 19.1944 65.5733 19.6007 66.6872 19.6007C67.5426 19.6007 68.2679 19.3779 68.8435 18.9378C69.4173 18.5012 69.7916 17.9416 69.9591 17.1681ZM74.9993 20.7133C75.8527 21.378 76.9967 21.7148 78.3961 21.7148C80.0802 21.7148 81.4179 21.125 82.3822 19.9577C82.4607 20.4103 82.6427 20.7721 82.9223 21.0394C83.2928 21.3923 83.9004 21.5705 84.7311 21.5705H85.9933V19.4088H85.214C84.7707 19.4088 84.5726 19.1878 84.5726 18.6941V13.3941C84.5726 11.9185 84.1184 10.7672 83.2239 9.97245C82.3345 9.18294 81.0672 8.78374 79.4565 8.78374C77.947 8.78374 76.6995 9.13663 75.7492 9.82987C74.7887 10.5321 74.2258 11.5211 74.0761 12.7703L74.0527 13.3299H76.373L76.4016 12.8274C76.5212 12.2429 76.8331 11.7848 77.3512 11.432C77.8736 11.0774 78.5487 10.8973 79.3596 10.8973C80.2761 10.8973 80.996 11.1094 81.4987 11.53C81.9991 11.947 82.2413 12.5173 82.2413 13.2729V14.0767H78.2303C75.6993 14.0767 73.6894 15.5469 73.6894 17.9474C73.6894 19.1076 74.1312 20.0379 74.9993 20.7133ZM76.0435 17.828C76.0435 16.568 76.8844 16.094 78.6133 16.094V16.0922H82.2435V16.3809C82.2435 17.37 81.914 18.1719 81.2653 18.769C80.6108 19.3695 79.6949 19.6743 78.5421 19.6743C77.765 19.6743 77.1449 19.5015 76.6973 19.1575C76.257 18.8206 76.0435 18.3858 76.0435 17.828ZM87.1565 21.5682V8.92762H89.4856V10.4923C89.8099 10.0771 90.138 9.73137 90.5907 9.45868C91.1785 9.10579 91.9952 8.92762 93.0196 8.92762H93.7505V11.2087H92.5852C91.4654 11.2087 90.692 11.5687 90.2165 12.3083C89.7314 13.0621 89.4856 14.012 89.4856 15.1276V21.5682H87.1565Z" fill="#1B2032"/>
<path d="M24.7 8.79963V21.6986C24.7 23.2472 23.4453 24.5018 21.8967 24.5018H8.99771C7.44907 24.5018 6.19444 23.2472 6.19444 21.6986V8.79963C6.19444 7.25094 7.44907 5.99632 8.99771 5.99632H21.8967C23.4453 5.99632 24.7 7.25094 24.7 8.79963ZM3.56047 0.559082C2.01181 0.559082 0.757202 1.8137 0.757202 3.36235C0.757202 4.91101 2.01181 6.16563 3.56047 6.16563C5.10913 6.16563 6.36374 4.91101 6.36374 3.36235C6.36374 1.8137 5.10913 0.559082 3.56047 0.559082Z" fill="url(#paint0_linear_857_28)"/>
</g>
<defs>
<linearGradient id="paint0_linear_857_28" x1="4.29731" y1="20.9624" x2="21.1608" y2="4.09886" gradientUnits="userSpaceOnUse">
<stop stop-color="#7381FD"/>
<stop offset="1" stop-color="#76C7FF"/>
</linearGradient>
<clipPath id="clip0_857_28">
<rect width="102" height="24.9497" fill="white"/>
</clipPath>
</defs>
</svg>
