<svg width="164" height="40" viewBox="0 0 164 40" fill="none" xmlns="http://www.w3.org/2000/svg">
<path fill-rule="evenodd" clip-rule="evenodd" d="M153.888 33.2593C154.726 34.1363 156.128 34.5821 158.054 34.5821V34.5849H161.718V31.1193H158.246C157.534 31.1193 157.04 30.9735 156.774 30.6879C156.503 30.3935 156.366 29.8678 156.366 29.1221V17.7793H161.714V14.3135H156.366V9.61353H152.632V29.1621C152.632 31.0049 153.054 32.3849 153.888 33.2593ZM74.3287 32.9761C75.9287 34.1933 78.0745 34.8104 80.7001 34.8104C82.1715 34.8104 83.5345 34.5561 84.7401 34.0475C85.9659 33.5418 86.9545 32.8104 87.6773 31.8733C88.4087 30.9247 88.7801 29.8133 88.7801 28.5704C88.7801 27.1418 88.4145 25.9904 87.6887 25.1418C86.9773 24.3075 86.0229 23.6933 84.8573 23.3189C83.7259 22.9561 82.2715 22.6647 80.5373 22.4589C79.3173 22.3075 78.3945 22.1647 77.8001 22.0389C77.2487 21.9218 76.7945 21.6989 76.4487 21.3761C76.1201 21.0704 75.9601 20.6304 75.9601 20.0389C75.9601 19.2333 76.323 18.5961 77.0715 18.0933C77.843 17.5733 78.883 17.3104 80.1573 17.3104C81.4001 17.3104 82.4487 17.6275 83.2687 18.2561C84.0887 18.8847 84.5459 19.6561 84.6659 20.6161L84.6973 21.3675H88.423L88.4001 20.5589C88.2401 18.4761 87.3887 16.8475 85.8715 15.719C84.3715 14.6075 82.4115 14.0418 80.0429 14.0418C78.5915 14.0418 77.2659 14.3018 76.103 14.819C74.9287 15.339 73.9859 16.079 73.303 17.0161C72.6116 17.9618 72.263 19.0589 72.263 20.2733C72.263 21.6275 72.6259 22.7104 73.3401 23.4961C74.0401 24.2647 74.9659 24.8304 76.0915 25.1789C77.1859 25.5189 78.6059 25.7961 80.3115 26.0018C81.5059 26.1533 82.4401 26.3075 83.0831 26.4589C83.6859 26.6018 84.1801 26.8618 84.5515 27.2333C84.9059 27.5904 85.0859 28.1189 85.0859 28.8104C85.0859 29.6161 84.7059 30.2504 83.9231 30.7533C83.1115 31.2761 82.0259 31.5389 80.6973 31.5389C79.1973 31.5389 77.9629 31.1818 77.0259 30.4761C76.0973 29.7761 75.6231 28.8989 75.5745 27.7933L75.563 27.5218H71.8373L71.8401 27.8104C71.8687 30.0018 72.7059 31.7418 74.3287 32.9761ZM69.4299 27.5232H65.7071C65.4385 28.7632 64.8385 29.6603 63.9185 30.3603C62.9955 31.066 61.8327 31.4232 60.4613 31.4232C58.6756 31.4232 57.2071 30.7718 56.0985 29.4918C54.9785 28.1975 54.4099 26.5261 54.4099 24.4432C54.4099 22.3603 54.9756 20.6861 56.0985 19.3947C57.2071 18.1147 58.6756 17.4632 60.4613 17.4632C61.8327 17.4632 62.9955 17.8232 63.9185 18.5261C64.8385 19.2289 65.4385 20.1261 65.7071 21.3661H69.4299C69.0071 19.1203 67.9985 17.3003 66.4355 16.0147C64.8727 14.7289 62.8613 14.0775 60.4613 14.0775C58.5099 14.0775 56.7727 14.5203 55.2927 15.3918C53.8099 16.2632 52.6442 17.5061 51.8242 19.0775C51.0099 20.6432 50.5956 22.4232 50.5956 24.4432C50.5956 26.4632 51.0099 28.2432 51.8242 29.8089C52.6442 31.3832 53.8099 32.6232 55.2927 33.4975C56.7727 34.3689 58.5127 34.8118 60.4613 34.8118C62.8613 34.8118 64.8727 34.1604 66.4355 32.8746C67.9985 31.5889 69.0071 29.7689 69.4299 27.5232ZM112.16 27.5245H115.883C115.46 29.7702 114.452 31.5902 112.889 32.8759C111.326 34.1616 109.315 34.813 106.915 34.813C104.966 34.813 103.226 34.3702 101.746 33.4988C100.263 32.6245 99.0975 31.3845 98.2775 29.8102C97.4632 28.2445 97.0489 26.4645 97.0489 24.4445C97.0489 22.4245 97.4632 20.6445 98.2775 19.0788C99.0975 17.5073 100.263 16.2645 101.746 15.3931C103.226 14.5216 104.963 14.0788 106.915 14.0788C109.315 14.0788 111.326 14.7302 112.889 16.0159C114.452 17.3016 115.46 19.1216 115.883 21.3673H112.16C111.892 20.1273 111.292 19.2302 110.372 18.5273C109.449 17.8245 108.286 17.4645 106.915 17.4645C105.129 17.4645 103.66 18.1159 102.552 19.3959C101.429 20.6873 100.863 22.3616 100.863 24.4445C100.863 26.5273 101.432 28.1988 102.552 29.493C103.66 30.773 105.129 31.4245 106.915 31.4245C108.286 31.4245 109.449 31.0673 110.372 30.3616C111.292 29.6616 111.892 28.7645 112.16 27.5245ZM120.241 33.2081C121.609 34.2738 123.443 34.8138 125.687 34.8138C128.387 34.8138 130.531 33.8681 132.077 31.9967C132.203 32.7224 132.495 33.3024 132.943 33.731C133.537 34.2967 134.511 34.5824 135.843 34.5824H137.867V31.1167H136.617C135.907 31.1167 135.589 30.7624 135.589 29.971V21.4738C135.589 19.1081 134.861 17.2624 133.427 15.9881C132.001 14.7224 129.969 14.0824 127.387 14.0824C124.967 14.0824 122.967 14.6481 121.443 15.7595C119.903 16.8853 119.001 18.471 118.761 20.4738L118.723 21.371H122.443L122.489 20.5653C122.681 19.6281 123.181 18.8938 124.011 18.3281C124.849 17.7595 125.931 17.471 127.231 17.471C128.701 17.471 129.855 17.811 130.661 18.4853C131.463 19.1538 131.851 20.0681 131.851 21.2795V22.5681H125.421C121.363 22.5681 118.141 24.9253 118.141 28.7738C118.141 30.6338 118.849 32.1253 120.241 33.2081ZM121.915 28.5824C121.915 26.5624 123.263 25.8024 126.035 25.8024V25.7995H131.855V26.2624C131.855 27.8481 131.327 29.1338 130.287 30.091C129.237 31.0538 127.769 31.5424 125.921 31.5424C124.675 31.5424 123.681 31.2653 122.963 30.7138C122.257 30.1738 121.915 29.4767 121.915 28.5824ZM139.732 34.5787V14.313H143.466V16.8216C143.986 16.1559 144.512 15.6016 145.237 15.1644C146.18 14.5987 147.489 14.313 149.132 14.313H150.303V17.9701H148.435C146.64 17.9701 145.4 18.5473 144.637 19.733C143.86 20.9416 143.466 22.4644 143.466 24.253V34.5787H139.732Z" fill="#1B2032"/>
<path d="M39.5996 14.1077V34.7877C39.5996 37.2705 37.5881 39.2819 35.1052 39.2819H14.4253C11.9424 39.2819 9.931 37.2705 9.931 34.7877V14.1077C9.931 11.6248 11.9424 9.61337 14.4253 9.61337H35.1052C37.5881 9.61337 39.5996 11.6248 39.5996 14.1077ZM5.70814 0.89624C3.22529 0.89624 1.21387 2.90767 1.21387 5.39052C1.21387 7.87338 3.22529 9.88481 5.70814 9.88481C8.191 9.88481 10.2024 7.87338 10.2024 5.39052C10.2024 2.90767 8.191 0.89624 5.70814 0.89624Z" fill="url(#paint0_linear_857_28)"/>
<defs>
<linearGradient id="paint0_linear_857_28" x1="6.88946" y1="33.6073" x2="33.9255" y2="6.57131" gradientUnits="userSpaceOnUse">
<stop stop-color="#7381FD"/>
<stop offset="1" stop-color="#76C7FF"/>
</linearGradient>
</defs>
</svg>
